<?xml version="1.0" encoding="UTF-8"?>
<svg width="512px" height="128px" viewBox="0 0 512 128" version="1.1" xmlns="http://www.w3.org/2000/svg" xmlns:xlink="http://www.w3.org/1999/xlink">
    <!-- Generator: Sketch 54.1 (76490) - https://sketchapp.com -->
    <title>monobank | Univeral Bank</title>
    <desc>Created with Sketch.</desc>
    <g id="monobank-|-Univeral-Bank" stroke="none" stroke-width="1" fill="none" fill-rule="evenodd">
        <g id="Logotype" transform="translate(35.000000, 44.000000)">
            <path d="M29.0250053,28.5228277 L29.0250053,14.6450663 C29.0250053,10.7083947 26.9090145,8.83946981 23.355747,8.83946981 C20.4013448,8.83946981 17.8461862,10.5891016 16.7283043,12.3387334 C16.0096659,10.1516937 14.21307,8.83946981 11.3784408,8.83946981 C8.42403866,8.83946981 5.86888002,10.6686303 5.07039294,11.8217968 L5.07039294,9.31664212 L0,9.31664212 L0,28.5228277 L5.07039294,28.5228277 L5.07039294,15.5994109 C5.82895566,14.5257732 7.30615676,13.3328424 9.06282833,13.3328424 C11.1388947,13.3328424 11.9373818,14.6053019 11.9373818,16.3946981 L11.9373818,28.5228277 L17.0476991,28.5228277 L17.0476991,15.5596465 C17.7663375,14.5257732 19.2435386,13.3328424 21.0401345,13.3328424 C23.1162009,13.3328424 23.914688,14.6053019 23.914688,16.3946981 L23.914688,28.5228277 L29.0250053,28.5228277 Z M42.9586047,29 C36.6106325,29 32.7778945,24.3873343 32.7778945,18.8998527 C32.7778945,13.4521355 36.6106325,8.83946981 42.9586047,8.83946981 C49.3465014,8.83946981 53.1792393,13.4521355 53.1792393,18.8998527 C53.1792393,24.3873343 49.3465014,29 42.9586047,29 Z M42.9586047,24.5066274 C46.1126287,24.5066274 47.9092246,21.921944 47.9092246,18.8998527 C47.9092246,15.9175258 46.1126287,13.3328424 42.9586047,13.3328424 C39.8045808,13.3328424 38.0479092,15.9175258 38.0479092,18.8998527 C38.0479092,21.921944 39.8045808,24.5066274 42.9586047,24.5066274 Z M75.0178609,28.5228277 L75.0178609,14.9631811 C75.0178609,11.2253314 72.9817188,8.83946981 68.7497373,8.83946981 C65.5957134,8.83946981 63.2401765,10.3505155 62.0025215,11.8217968 L62.0025215,9.31664212 L56.9321286,9.31664212 L56.9321286,28.5228277 L62.0025215,28.5228277 L62.0025215,15.5994109 C62.840933,14.4462445 64.3979828,13.3328424 66.3942005,13.3328424 C68.5501156,13.3328424 69.947468,14.2474227 69.947468,16.9116348 L69.947468,28.5228277 L75.0178609,28.5228277 Z M88.9913847,29 C82.6434125,29 78.8106745,24.3873343 78.8106745,18.8998527 C78.8106745,13.4521355 82.6434125,8.83946981 88.9913847,8.83946981 C95.3792814,8.83946981 99.2120193,13.4521355 99.2120193,18.8998527 C99.2120193,24.3873343 95.3792814,29 88.9913847,29 Z M88.9913847,24.5066274 C92.1454087,24.5066274 93.9420046,21.921944 93.9420046,18.8998527 C93.9420046,15.9175258 92.1454087,13.3328424 88.9913847,13.3328424 C85.8373608,13.3328424 84.0806892,15.9175258 84.0806892,18.8998527 C84.0806892,21.921944 85.8373608,24.5066274 88.9913847,24.5066274 Z M108.035302,22.359352 C108.873713,23.5920471 110.750158,24.5066274 112.387056,24.5066274 C115.341458,24.5066274 117.297752,22.2798233 117.297752,18.9396171 C117.297752,15.5994109 115.341458,13.3328424 112.387056,13.3328424 C110.750158,13.3328424 108.873713,14.287187 108.035302,15.5596465 L108.035302,22.359352 Z M108.035302,28.5228277 L102.964909,28.5228277 L102.964909,2 L108.035302,2 L108.035302,11.7820324 C109.552427,9.83357879 111.708342,8.83946981 113.98403,8.83946981 C118.894726,8.83946981 122.527842,12.6568483 122.527842,18.9396171 C122.527842,25.3416789 118.854801,29 113.98403,29 C111.668418,29 109.552427,27.9661267 108.035302,26.0574374 L108.035302,28.5228277 Z M143.009036,28.5228277 L137.938643,28.5228277 L137.938643,26.5346097 C136.621139,28.0854197 134.345451,29 131.830216,29 C128.756041,29 125.122925,26.9322533 125.122925,22.6377025 C125.122925,18.1443299 128.756041,16.4344624 131.830216,16.4344624 C134.385375,16.4344624 136.661063,17.269514 137.938643,18.7805596 L137.938643,16.1958763 C137.938643,14.2474227 136.26182,12.9749632 133.706661,12.9749632 C131.630595,12.9749632 129.714226,13.730486 128.077327,15.2415317 L126.160958,11.8615611 C128.516495,9.79381443 131.550746,8.83946981 134.584997,8.83946981 C138.976676,8.83946981 143.009036,10.5891016 143.009036,16.1163476 L143.009036,28.5228277 Z M133.866358,25.5802651 C135.503257,25.5802651 137.100231,25.0235641 137.938643,23.910162 L137.938643,21.5243004 C137.100231,20.4108984 135.503257,19.8541973 133.866358,19.8541973 C131.870141,19.8541973 130.233242,20.8880707 130.233242,22.7569956 C130.233242,24.5463918 131.870141,25.5802651 133.866358,25.5802651 Z M166.125236,28.5228277 L166.125236,14.9631811 C166.125236,11.2253314 164.089094,8.83946981 159.857113,8.83946981 C156.703089,8.83946981 154.347552,10.3505155 153.109897,11.8217968 L153.109897,9.31664212 L148.039504,9.31664212 L148.039504,28.5228277 L153.109897,28.5228277 L153.109897,15.5994109 C153.948308,14.4462445 155.505358,13.3328424 157.501576,13.3328424 C159.657491,13.3328424 161.054843,14.2474227 161.054843,16.9116348 L161.054843,28.5228277 L166.125236,28.5228277 Z M190,28.5228277 L182.134902,18.0250368 L189.760454,9.31664212 L183.532255,9.31664212 L176.226098,17.8659794 L176.226098,2 L171.155705,2 L171.155705,28.5228277 L176.226098,28.5228277 L176.226098,23.5920471 L178.54171,21.1266568 L183.652028,28.5228277 L190,28.5228277 Z" id="monobank" fill="#000000"></path>
            <path d="M428.144449,6.06852202 L432.304544,6.06852202 L432.304544,19.3417381 L432.539702,19.3417381 L437.948334,12.965848 L441.785299,12.9558204 L435.850523,19.9250109 L443,28.6406772 L438.208869,28.6406772 L432.363757,20.5283389 L432.304544,20.5283389 L432.304544,28.6406772 L428.144449,28.6406772 L428.144449,6.06852202 Z M230.39187,7.07796832 L230.39187,19.4553844 C230.39187,23.6719953 231.637023,25.9766749 235.122097,25.9766749 C238.459986,25.9766749 239.794803,23.1823136 239.794803,19.6993896 L239.794803,7.07796832 L243.726508,7.07796832 L243.726508,20.4698445 C243.726508,25.914838 240.172071,29 235.000288,29 C229.079046,29 226,26.1304316 226,20.2542508 L226,7.07796832 L230.39187,7.07796832 Z M252.916276,15.0515913 C254.32384,13.5758611 256.282925,12.8672431 258.248778,12.8672431 C261.894571,12.8672431 263.823205,14.8326551 263.823205,18.7116698 L263.823205,28.6273071 L259.686794,28.6273071 L259.686794,19.1779538 C259.686794,17.0203459 258.722477,15.60311 256.567145,15.60311 C254.54208,15.60311 252.950112,16.9284261 252.950112,19.4553844 L252.950112,28.6273071 L248.808626,28.6273071 L248.808626,13.233251 L252.916276,13.233251 L252.916276,15.0515913 Z M268.690466,28.6273071 L268.690466,13.233251 L272.833644,13.233251 L272.833644,28.6273071 L268.690466,28.6273071 Z M268.284438,8.6172068 C268.284438,7.44898997 269.279207,6.2456765 270.686771,6.2456765 C272.118019,6.2456765 273.234597,7.41723587 273.234597,8.6172068 C273.234597,9.93918035 272.275355,11.2026595 270.745983,11.2026595 C269.279207,11.2026595 268.284438,9.93918035 268.284438,8.6172068 Z M281.999727,28.6273071 L275.369627,13.1680715 L279.759806,13.1680715 C281.10139,16.7094899 282.49542,20.0403284 283.801477,24.3187763 L283.864073,24.3187763 C285.271637,20.0403284 286.596303,16.7094899 288.027552,13.1680715 L291.913579,13.1680715 L284.894369,28.6273071 L281.999727,28.6273071 Z M298.04291,21.3021363 C297.949862,24.198445 300.005379,26.3493678 302.592116,26.3493678 C304.126564,26.3493678 305.738834,25.8262607 306.772514,25.1159715 L307.95507,27.2735794 C305.836957,28.5036332 303.620721,29 301.84604,29 C297.14119,29 293.62228,25.7025868 293.62228,20.6236012 C293.62228,15.8805406 297.107354,12.8672431 301.565204,12.8672431 C306.425698,12.8672431 308.454146,16.7128324 308.147934,21.3021363 L298.04291,21.3021363 Z M304.241605,19.086034 C304.404017,16.7395727 303.561508,15.1435111 301.509375,15.1435111 C299.132419,15.1435111 298.066595,17.0203459 298.112274,19.086034 L304.241605,19.086034 Z M316.278645,15.9423776 L316.337858,15.9423776 L317.180366,14.7424066 C317.643915,14.0622003 318.579471,12.8672431 319.856768,12.8672431 C320.792324,12.8672431 321.79386,13.3602674 322.66682,14.2493824 L321.103612,17.0821828 C320.41844,16.7395727 319.980268,16.5590757 319.144527,16.5590757 C317.709894,16.5590757 316.309097,17.698881 316.309097,21.0213632 L316.309097,28.6273071 L312.152385,28.6273071 L312.152385,13.233251 L316.278645,13.233251 L316.278645,15.9423776 Z M333.726009,16.1262171 C332.793836,15.4493533 331.826136,15.1435111 331.074984,15.1435111 C330.142811,15.1435111 329.205563,15.664947 329.205563,16.7128324 C329.205563,17.9445575 330.704484,18.6548467 332.447021,19.9116407 C334.666641,21.5511554 335.314594,23.1505595 335.314594,24.559439 C335.314594,26.7220607 332.912261,29 329.489783,29 C327.337834,29 325.74925,28.2579567 324.28924,27.2434966 L325.596989,25.1159715 C326.525778,25.8596861 327.863979,26.5933731 328.98394,26.5933731 C330.176647,26.5933731 331.230628,25.9766749 331.230628,24.6847842 C331.230628,23.2374655 329.608208,22.438599 328.117747,21.3907136 C326.339682,20.1924139 325.128365,19.0208545 325.128365,17.1156082 C325.128365,14.6788984 327.490095,12.8672431 330.543764,12.8672431 C332.264308,12.8672431 333.940866,13.2950879 335.070977,14.284479 L333.726009,16.1262171 Z M346.847482,27.1515768 C345.722446,28.0757884 344.289505,29 342.86164,29 C340.427164,29 338.397023,27.1515768 338.397023,24.3187763 C338.397023,21.3907136 340.552356,19.7612266 344.169389,18.7116698 L347.847326,17.6337015 C347.629086,16.2198082 346.348406,15.3290219 345.015281,15.3290219 C343.232141,15.3290219 341.985296,15.9758029 340.895788,16.9000145 L339.55082,14.9596716 C341.487912,13.3903502 343.384401,12.8672431 345.531275,12.8672431 C348.405615,12.8672431 351.927908,13.7847697 351.927908,18.5930097 L351.927908,24.870295 C351.927908,26.1036913 352.080169,27.5543526 352.582628,28.6273071 L348.190758,28.6273071 C347.871011,28.1025287 347.781347,27.2134137 347.781347,26.3811219 L346.847482,27.1515768 Z M345.531275,20.4380904 C343.509593,21.0848714 342.480989,22.2230054 342.480989,23.9761663 C342.480989,25.3332364 343.353949,26.257448 344.358869,26.257448 C346.003282,26.257448 348.155231,24.223514 347.847326,19.6993896 L345.531275,20.4380904 Z M356.571854,28.6273071 L356.571854,6 L360.718415,6 L360.718415,28.6273071 L356.571854,28.6273071 Z M398.724333,27.1515768 C397.609447,28.0757884 396.173123,29 394.738491,29 C392.310781,29 390.280641,27.1515768 390.280641,24.3187763 C390.280641,21.3907136 392.43259,19.7612266 396.053007,18.7116698 L399.734328,17.6337015 C399.505937,16.2198082 398.235407,15.3290219 396.887056,15.3290219 C395.115759,15.3290219 393.86553,15.9758029 392.776022,16.9000145 L391.434438,14.9596716 C393.368146,13.3903502 395.271403,12.8672431 397.425043,12.8672431 C400.285849,12.8672431 403.804759,13.7847697 403.804759,18.5930097 L403.804759,24.870295 C403.804759,26.1036913 403.960403,27.5543526 404.456095,28.6273071 L400.069301,28.6273071 C399.761396,28.1025287 399.658197,27.2134137 399.658197,26.3811219 L398.724333,27.1515768 Z M397.425043,20.4380904 C395.396595,21.0848714 394.36799,22.2230054 394.36799,23.9761663 C394.36799,25.3332364 395.237567,26.257448 396.239103,26.257448 C397.883516,26.257448 400.038849,24.223514 399.734328,19.6993896 L397.425043,20.4380904 Z M412.564814,15.0515913 C413.968994,13.5758611 415.934847,12.8672431 417.895624,12.8672431 C421.539726,12.8672431 423.471743,14.8326551 423.471743,18.7116698 L423.471743,28.6273071 L419.328565,28.6273071 L419.328565,19.1779538 C419.328565,17.0203459 418.360864,15.60311 416.210608,15.60311 C414.183851,15.60311 412.595266,16.9284261 412.595266,19.4553844 L412.595266,28.6273071 L408.452088,28.6273071 L408.452088,13.233251 L412.564814,13.233251 L412.564814,15.0515913 Z M371.449399,28.6858015 L371.449399,7.13646272 L379.334802,7.13646272 C383.009355,7.13646272 385.599476,8.79770382 385.599476,11.7224241 C385.599476,15.1685801 382.764047,16.5891586 381.238058,16.9869205 L381.238058,17.0487574 C383.949987,17.1741026 386.969821,19.017512 386.969821,22.3115826 C386.969821,26.0351693 383.818028,28.6858015 378.683465,28.6858015 L371.449399,28.6858015 Z M375.837885,26.0351693 L378.08119,26.0351693 C380.513975,26.0351693 382.358019,24.7750327 382.358019,22.3767621 C382.358019,19.8498038 380.454762,18.7735068 378.055813,18.7735068 L375.837885,18.7735068 L375.837885,26.0351693 Z M375.837885,16.1262171 L377.216689,16.1262171 C379.744213,16.1262171 381.459682,14.526813 381.459682,12.5212905 C381.459682,10.6160442 380.018282,9.7870949 378.118409,9.7870949 L375.837885,9.7870949 L375.837885,16.1262171 Z" id="Universal-Bank" fill="#6E6E6E"></path>
            <rect id="Rectangle" fill="#000000" x="207" y="0" width="1" height="40"></rect>
        </g>
    </g>
</svg>